# xmcd
#
# Track frame offsets: 
#        150
#        21575
#        35188
#        49353
#        64553
#        76083
#        91320
#        111028
#        130163
#        148168
#        166118
#        184370
#        198845
#        211703
#        227755
#        241453
#
# Disc length: 3624 seconds
#
# Revision: 0
# Processed by: cddbd v1.5.2PL0 Copyright (c) Steve Scherf et al.
# Submitted via: ExactAudioCopy v0.95b4
#
DISCID=de0e2610
DTITLE=Eric Clapton - Back Again 1994
DYEAR=1994
DGENRE=Blues
TTITLE0=Terraplane
TTITLE1=Come In My Kitchen
TTITLE2=Malted Milk
TTITLE3=How Long
TTITLE4=Kidman Blues
TTITLE5=County Jail
TTITLE6=44
TTITLE7=Standing Around Crying
TTITLE8=Going Away
TTITLE9=Blues All Day Long
TTITLE10=Hoochie Coochie Man
TTITLE11=It Hurts Me Too
TTITLE12=Blues Before Sunrise
TTITLE13=Someday After A While
TTITLE14=Tore Down
TTITLE15=White Room
EXTD=
EXTT0=
EXTT1=
EXTT2=
EXTT3=
EXTT4=
EXTT5=
EXTT6=
EXTT7=
EXTT8=
EXTT9=
EXTT10=
EXTT11=
EXTT12=
EXTT13=
EXTT14=
EXTT15=
PLAYORDER=
